:SAMPLES-PER-SECOND 30
:FULLY-SPECIFIED
:DEGREES
515
root  -39.5206 33.4177 -5.95608 -160.565 49.0313 -173.854
RightUpLeg  -35.9473 -10.0745 3.57372
RightLeg  27.5557 24.9742 10.5928
RightFoot  5.97998 -0.141436 3.0597
RightToes  -59.3702 -0.388611 -0.397208
Spine  4.98156 1.08685 -0.512635
Spine1  9.84386 2.42906 -0.572778
HEad  -51.3065 -24.9642 -15.1249
LeftShoulder1  -1.94126e-019 -3.10601e-018 -2.51263e-017
LeftArm  27.8987 2.91231 -77.6241
LeftForeArm  35.458 -28.6336 -4.23751
LeftHand  -0.983203 -5.19535 11.0635
RightShoulder  -4.96962e-017 0 -2.36833e-017
RightArm  14.7869 -2.88982 81.5022
RightForeArm  55.191 22.5832 2.06079
RightHand  -0.737249 -1.24107 -20.4872
LeftUpLeg  -34.0809 15.8857 3.12515
LeftLeg  40.4027 7.52213 5.57075
LeftFoot  -7.54257 -0.0812714 -1.07136
LeftToes  -19.6873 1.83942e-006 5.51297e-008
516
root  -39.6444 33.427 -6.35707 -161.856 50.0821 -173.821
RightUpLeg  -34.3136 -9.94302 2.65165
RightLeg  27.3747 25.714 10.789
RightFoot  6.0193 -0.148936 3.17366
RightToes  -59.944 -0.394018 -0.398823
Spine  4.54269 1.01261 -0.528016
Spine1  8.97176 2.26519 -0.577824
HEad  -52.2609 -26.6323 -13.9397
LeftShoulder1  -1.94126e-019 -3.10601e-018 -2.51263e-017
LeftArm  25.992 3.59393 -78.4069
LeftForeArm  34.0805 -27.7781 -4.1216
LeftHand  -0.843075 -4.89186 9.80194
RightShoulder  -4.96962e-017 0 -2.36833e-017
RightArm  12.8329 -3.23785 81.6006
RightForeArm  54.2696 22.2397 2.03315
RightHand  -0.689413 -0.861976 -17.6074
LeftUpLeg  -32.1965 16.2892 2.77756
LeftLeg  40.4171 7.97979 5.90871
LeftFoot  -8.27743 -0.104044 -1.27625
LeftToes  -18.4728 1.83942e-006 5.51297e-008
517
root  -39.7166 33.4658 -6.80319 -162.956 50.3117 -173.429
RightUpLeg  -32.175 -11.3129 2.31719
RightLeg  26.6935 27.2982 11.0337
RightFoot  6.16752 -0.168598 3.45199
RightToes  -61.0121 -0.404122 -0.400741
Spine  4.13752 0.67777 -0.320385
Spine1  8.17434 1.55626 -0.151424
HEad  -53.0903 -28.1153 -12.7565
LeftShoulder1  -1.94126e-019 -3.10601e-018 -2.51263e-017
LeftArm  24.0165 4.21583 -79.4561
LeftForeArm  33.5648 -26.5639 -3.90831
LeftHand  -0.753065 -4.70676 8.94174
RightShoulder  -4.96962e-017 0 -2.36833e-017
RightArm  10.5485 -3.74629 81.3681
RightForeArm  53.844 22.1288 2.03064
RightHand  -0.656989 -0.500836 -15.5818
LeftUpLeg  -30.1713 15.9643 2.87848
LeftLeg  40.2887 8.42895 6.20792
LeftFoot  -8.99261 -0.129865 -1.4898
LeftToes  -17.1587 1.83942e-006 5.51297e-008
518
root  -39.88 33.4893 -7.20754 -164.082 51.4837 -173.651
RightUpLeg  -30.9331 -11.8165 1.41649
RightLeg  26.4029 28.8266 11.4282
RightFoot  6.41498 -0.194143 3.80404
RightToes  -62.2027 -0.415441 -0.403491
Spine  3.65209 0.581325 -0.371552
Spine1  7.21265 1.33261 -0.205843
HEad  -54.1608 -29.3302 -11.1807
LeftShoulder1  -1.94126e-019 -3.10601e-018 -2.51263e-017
LeftArm  21.8692 4.69082 -80.1203
LeftForeArm  34.8752 -25.9644 -3.75578
LeftHand  -0.724807 -4.8606 8.49761
RightShoulder  -4.96962e-017 0 -2.36833e-017
RightArm  8.10743 -4.53457 81.0949
RightForeArm  53.4685 23.1229 2.24099
RightHand  -0.646811 -0.0345587 -14.0502
LeftUpLeg  -28.5381 16.3129 2.20622
LeftLeg  39.9669 9.08173 6.60379
LeftFoot  -9.51979 -0.15647 -1.71742
LeftToes  -16.0513 1.83942e-006 5.51297e-008
519
root  -40.0287 33.5108 -7.61913 -165.622 52.8825 -174.047
RightUpLeg  -29.3926 -12.1196 0.306661
RightLeg  26.0281 30.3942 11.7648
RightFoot  6.60448 -0.219978 4.1489
RightToes  -63.5819 -0.42862 -0.406881
Spine  3.3224 0.586649 -0.454655
Spine1  6.55504 1.3252 -0.338807
HEad  -55.386 -30.4223 -9.45346
LeftShoulder1  -1.94126e-019 -3.10601e-018 -2.51263e-017
LeftArm  19.1142 5.06879 -80.6793
LeftForeArm  36.407 -25.5917 -3.6312
LeftHand  -0.736224 -5.02818 8.49688
RightShoulder  -4.96962e-017 0 -2.36833e-017
RightArm  5.9615 -5.37932 80.7448
RightForeArm  52.808 24.1542 2.47139
RightHand  -0.636219 0.136792 -13.4095
LeftUpLeg  -26.5437 17.0272 1.49486
LeftLeg  39.5227 9.61567 6.87337
LeftFoot  -10.0662 -0.1845 -1.93312
LeftToes  -14.3894 1.83942e-006 5.51297e-008
520
root  -40.1927 33.5249 -7.99278 -166.731 54.0466 -174.257
RightUpLeg  -28.1876 -12.9616 -0.48545
RightLeg  25.6351 32.3269 12.1824
RightFoot  6.84777 -0.256965 4.61609
RightToes  -65.2469 -0.444619 -0.410424
Spine  3.01989 0.521052 -0.529355
Spine1  5.95296 1.19673 -0.485464
HEad  -57.1565 -31.2598 -7.03622
LeftShoulder1  -1.94126e-019 -3.10601e-018 -2.51263e-017
LeftArm  15.906 5.42199 -80.8606
LeftForeArm  35.4278 -26.0845 -3.79041
LeftHand  -0.6904 -4.60612 8.30134
RightShoulder  -4.96962e-017 0 -2.36833e-017
RightArm  4.45127 -6.06942 80.4564
RightForeArm  52.466 25.0532 2.665
RightHand  -0.636031 0.0686729 -13.5665
LeftUpLeg  -25.0492 17.7637 0.872136
LeftLeg  39.1957 10.0051 7.06167
LeftFoot  -10.5328 -0.209446 -2.11039
LeftToes  -13.0484 1.83942e-006 5.51297e-008
521
root  -40.3688 33.5415 -8.35408 -168.025 55.0809 -174.643
RightUpLeg  -27.0304 -14.7048 -1.2388
RightLeg  25.3884 34.9786 12.8779
RightFoot  7.17235 -0.31463 5.31864
RightToes  -67.7 -0.468335 -0.413117
Spine  2.71034 0.424113 -0.457079
Spine1  5.34079 0.982085 -0.320134
HEad  -58.5799 -32.0669 -5.05832
LeftShoulder1  -1.94126e-019 -3.10601e-018 -2.51263e-017
LeftArm  12.8837 6.01194 -81.3209
LeftForeArm  32.3652 -26.0251 -3.89942
LeftHand  -0.552075 -4.06575 7.04977
RightShoulder  -4.96962e-017 0 -2.36833e-017
RightArm  2.93243 -6.98724 79.8335
RightForeArm  52.5762 26.1791 2.89064
RightHand  -0.763388 0.65907 -14.7181
LeftUpLeg  -23.5258 18.5345 0.197607
LeftLeg  38.7342 10.2914 7.138
LeftFoot  -10.921 -0.230502 -2.24938
LeftToes  -11.6054 1.83942e-006 5.51297e-008
